<?xml version="1.0" standalone="no"?>
<!DOCTYPE svg PUBLIC "-//W3C//DTD SVG 20010904//EN"
 "http://www.w3.org/TR/2001/REC-SVG-20010904/DTD/svg10.dtd">
<svg version="1.0" xmlns="http://www.w3.org/2000/svg"
 width="512.000000pt" height="512.000000pt" viewBox="0 0 512.000000 512.000000"
 preserveAspectRatio="xMidYMid meet">
<metadata>
Created by potrace 1.14, written by Peter Selinger 2001-2017
</metadata>
<g transform="translate(0.000000,512.000000) scale(0.100000,-0.100000)"
fill="#000000" stroke="none">
<path d="M1880 4669 c-382 -36 -703 -346 -790 -763 -12 -60 -14 -61 -80 -40
-19 7 -199 6 -230 -1 -14 -3 -38 -8 -55 -10 -16 -3 -46 -11 -65 -17 -332 -103
-579 -397 -644 -764 -14 -78 -15 -316 -1 -379 58 -281 183 -481 404 -650 102
-77 113 -87 178 -157 118 -128 214 -347 238 -543 6 -52 12 -96 19 -143 2 -15
7 -49 11 -77 4 -27 8 -61 10 -75 3 -14 7 -47 10 -75 10 -85 36 -198 54 -240
63 -140 214 -256 371 -283 35 -6 723 -9 816 -3 27 1 72 46 76 74 3 21 7 22
130 22 101 0 128 -3 128 -13 0 -21 65 -82 88 -82 45 0 84 23 101 59 l16 36
125 0 124 0 9 -30 c5 -16 21 -39 35 -50 26 -19 44 -20 417 -20 400 -1 462 4
550 40 98 42 187 125 239 225 43 82 50 112 81 345 9 66 18 131 20 145 2 14 7
50 10 80 42 347 162 569 405 748 99 73 217 192 265 267 78 122 141 283 162
415 12 72 8 320 -5 375 -7 28 -14 59 -16 70 -15 77 -87 239 -144 322 -132 194
-339 337 -547 377 -16 4 -41 9 -55 11 -58 12 -244 5 -287 -10 -7 -2 -16 17
-23 53 -119 580 -686 913 -1194 702 -85 -36 -175 -91 -235 -145 l-40 -37 -28
27 c-48 46 -169 121 -249 155 -128 53 -262 73 -404 59z"/>
</g>
</svg>
